<?xml version="1.0" encoding="UTF-8"?>
<svg width="21px" height="23px" viewBox="0 0 21 23" version="1.1" xmlns="http://www.w3.org/2000/svg" xmlns:xlink="http://www.w3.org/1999/xlink">
    <!-- Generator: Sketch 63 (92445) - https://sketch.com -->
    <title>user_white</title>
    <desc>Created with Sketch.</desc>
    <g id="Page-1" stroke="none" stroke-width="1" fill="none" fill-rule="evenodd">
        <g id="iPhone-11-Copy-24" transform="translate(-195.000000, -306.000000)" fill="#FFFFFF" fill-rule="nonzero">
            <g id="user_white" transform="translate(195.000000, 306.000000)">
                <g id="Group">
                    <g id="Shape">
                        <g>
                            <g transform="translate(0.000000, 0.271607)">
                                <path d="M4.82084571,13.5255343 C5.29050122,13.5255343 5.67152327,13.9056172 5.67152327,14.37696 C5.67152327,14.6738057 5.51972571,14.9345486 5.28846367,15.0869828 C3.31713306,16.4779457 1.95604898,18.6782143 1.70746776,21.2104286 C1.70746776,21.2114314 1.70848653,21.2114314 1.70848653,21.2114314 C1.70848653,21.6817714 1.32746449,22.0628572 0.857808982,22.0628572 C0.387134694,22.0628572 0.00713142857,21.6817714 0.00713142857,21.2114314 L0,21.2154428 C0.251637551,18.1075886 1.89797878,15.4008772 4.30636408,13.7020372 C4.45001143,13.5927257 4.62727837,13.5255343 4.82084571,13.5255343 M20.3612473,21.2114314 L20.3755102,21.3648686 C20.3714351,21.3177343 20.3643037,21.2716028 20.3602286,21.2234657 C20.3520784,21.6877886 19.9761502,22.0628572 19.5105698,22.0628572 C19.0409143,22.0628572 18.6598922,21.6807686 18.6598922,21.2114314 L18.6578547,21.2114314 C18.2350629,16.8981428 14.6051657,13.52754 10.1877551,13.5255343 L10.18368,13.5245314 C10.1755298,13.5245314 10.1683984,13.5255343 10.1602481,13.5255343 C6.43051102,13.5255343 3.4067853,10.4969057 3.4067853,6.76226572 C3.4067853,3.02762572 6.43051102,0 10.1602481,0 C10.1643233,0 10.1683984,0.00100285714 10.1714547,0.00100285714 C10.1755298,0.00100285714 10.1796049,0 10.18368,0 C13.9113796,0 16.9340865,3.02662286 16.9340865,6.76026 C16.9340865,8.15724 16.5000881,9.44591142 15.7737012,10.5219772 C15.7665698,10.5330086 15.7594384,10.5430372 15.752307,10.5540686 C15.6463543,10.7095114 15.534289,10.85994 15.4150922,11.0053543 C15.3743412,11.0565 15.3315527,11.1046372 15.2897829,11.15478 C15.1817927,11.2791343 15.0738024,11.4034886 14.9566433,11.5208228 C14.8720849,11.6070686 14.7803951,11.6862943 14.6907429,11.7675257 C14.5593208,11.8868657 14.4238237,12.0031972 14.2811951,12.1125086 C14.1385665,12.22182 13.9959379,12.3281228 13.8441404,12.4264028 C13.8176522,12.4434514 13.7942204,12.4655143 13.7667135,12.48156 C17.331409,13.8213772 19.9445681,17.0926972 20.3388343,21.0249 C20.3520784,21.0850714 20.3612473,21.1472486 20.3612473,21.2114314 M10.18368,11.8176686 C10.3538155,11.8176686 10.5219135,11.8086428 10.6889927,11.7915943 C13.2298188,11.52684 15.2103184,9.37671425 15.2103184,6.76226572 C15.2103184,3.96930857 12.9496555,1.70586 10.1602481,1.70586 C9.99011267,1.70586 9.8209959,1.71488572 9.65493553,1.73093143 C7.11410938,1.99568572 5.13259102,4.14581143 5.13259102,6.76026 C5.13259102,9.55321716 7.39325388,11.8176686 10.18368,11.8176686"></path>
                            </g>
                        </g>
                    </g>
                </g>
            </g>
        </g>
    </g>
</svg>